<svg xmlns="http://www.w3.org/2000/svg" width="817.903" height="212.673" style="enable-background:new 0 0 817.903 212.673" xml:space="preserve"><style>.st0{fill:#004294}.st1{fill:#42a95a}</style><path class="st0" d="M218.235 100.142V86.933c3.33 1.332 6.882 2.405 10.656 3.219 3.774.815 7.437 1.221 10.989 1.221 5.55 0 9.452-.517 11.71-1.554 2.256-1.035 3.386-3.181 3.386-6.438 0-2.146-.519-3.847-1.554-5.106-1.037-1.257-2.739-2.348-5.106-3.274-2.369-.924-6.068-2.09-11.1-3.497-7.475-2.071-12.729-4.662-15.762-7.77-3.035-3.108-4.551-7.399-4.551-12.876 0-6.585 2.404-11.655 7.215-15.207 4.81-3.552 11.803-5.328 20.979-5.328 4.144 0 8.084.278 11.822.833 3.736.555 6.788 1.277 9.157 2.165V46.53c-6.068-2.292-12.396-3.441-18.981-3.441-5.033 0-8.788.555-11.266 1.665-2.48 1.11-3.719 3.146-3.719 6.105 0 1.851.461 3.33 1.388 4.44.924 1.11 2.478 2.092 4.662 2.941 2.182.852 5.567 1.87 10.157 3.053 8.287 2.22 14.022 5.089 17.205 8.603 3.181 3.516 4.773 8.011 4.773 13.486 0 6.438-2.442 11.489-7.326 15.152-4.884 3.663-12.099 5.494-21.645 5.494-9.547-.001-17.244-1.295-23.089-3.886zM280.727 31.433h15.096l20.979 42.957 20.979-42.957h14.985v71.484h-14.985V56.408l-16.65 34.188h-8.658l-16.761-34.188v46.509h-14.985V31.433zM387.73 31.433h16.428l27.195 71.484h-15.54l-6.771-17.205h-26.307l-6.66 17.205h-15.651l27.306-71.484zm19.092 42.735-10.989-28.749-10.878 28.749h21.867zM441.787 31.433h34.299c7.993 0 13.967 2.109 17.926 6.327 3.958 4.218 5.939 10.101 5.939 17.649 0 4.811-1.24 8.955-3.719 12.432-2.48 3.479-5.977 5.994-10.49 7.548 1.11.962 2.016 1.98 2.72 3.052.702 1.074 1.46 2.572 2.275 4.496l8.658 19.98h-15.54l-8.436-19.203c-.741-1.701-1.573-2.867-2.498-3.497-.926-.627-2.386-.943-4.384-.943h-11.766v23.643h-14.985V31.433zm30.414 35.409c4.069 0 7.177-.905 9.324-2.719 2.146-1.813 3.22-4.718 3.22-8.713 0-3.996-.963-6.918-2.887-8.769-1.926-1.849-4.848-2.775-8.769-2.775h-16.317v22.977h15.429zM524.039 42.977h-21.978V31.433h58.83v11.544h-21.867v59.94H524.04v-59.94z"/><path class="st1" d="M580.315 31.433h16.428l27.195 71.484h-15.539l-6.771-17.205h-26.307l-6.66 17.205H553.01l27.305-71.484zm19.092 42.735-10.988-28.749-10.879 28.749h21.867zM634.372 31.433h33.521c8.065 0 14.17 2.258 18.315 6.771 4.144 4.515 6.216 10.472 6.216 17.871 0 4.811-1.018 9.065-3.053 12.765-2.036 3.701-4.939 6.568-8.713 8.603-3.774 2.036-8.178 3.053-13.209 3.053h-18.094v22.422h-14.984V31.433zm29.97 37.185c4.218 0 7.438-1.11 9.657-3.33 2.22-2.22 3.33-5.29 3.33-9.213 0-4.144-1.037-7.307-3.108-9.491-2.072-2.182-5.181-3.274-9.324-3.274h-15.54v25.308h14.985zM699.084 31.433h33.521c8.065 0 14.17 2.258 18.315 6.771 4.144 4.515 6.216 10.472 6.216 17.871 0 4.811-1.018 9.065-3.053 12.765-2.036 3.701-4.939 6.568-8.713 8.603-3.774 2.036-8.178 3.053-13.209 3.053h-18.094v22.422h-14.984V31.433zm29.97 37.185c4.218 0 7.438-1.11 9.657-3.33 2.22-2.22 3.33-5.29 3.33-9.213 0-4.144-1.037-7.307-3.108-9.491-2.072-2.182-5.181-3.274-9.324-3.274h-15.54v25.308h14.985zM761.799 100.142V86.933c3.329 1.332 6.882 2.405 10.655 3.219 3.774.815 7.438 1.221 10.989 1.221 5.55 0 9.452-.517 11.711-1.554 2.256-1.035 3.385-3.181 3.385-6.438 0-2.146-.519-3.847-1.554-5.106-1.037-1.257-2.738-2.348-5.106-3.274-2.369-.924-6.068-2.09-11.1-3.497-7.475-2.071-12.729-4.662-15.762-7.77-3.035-3.108-4.551-7.399-4.551-12.876 0-6.585 2.403-11.655 7.215-15.207 4.81-3.552 11.802-5.328 20.979-5.328 4.144 0 8.084.278 11.821.833 3.736.555 6.789 1.277 9.158 2.165V46.53c-6.069-2.292-12.396-3.441-18.981-3.441-5.033 0-8.788.555-11.267 1.665-2.479 1.11-3.718 3.146-3.718 6.105 0 1.851.461 3.33 1.387 4.44.925 1.11 2.479 2.092 4.662 2.941 2.182.852 5.567 1.87 10.156 3.053 8.287 2.22 14.022 5.089 17.205 8.603 3.182 3.516 4.773 8.011 4.773 13.486 0 6.438-2.442 11.489-7.326 15.152-4.884 3.663-12.099 5.494-21.645 5.494s-17.241-1.295-23.086-3.886z"/><path class="st0" d="M246.54 162.882c.304 0 .579.123.826.37l2.166 2.365c-1.672 1.938-3.7 3.448-6.084 4.532-2.385 1.082-5.258 1.624-8.622 1.624-2.945 0-5.614-.508-8.008-1.524s-4.437-2.441-6.127-4.275c-1.691-1.834-3.002-4.033-3.933-6.598-.931-2.564-1.396-5.387-1.396-8.465s.499-5.899 1.496-8.465c.998-2.564 2.398-4.768 4.204-6.611 1.805-1.843 3.966-3.272 6.483-4.289s5.296-1.525 8.336-1.525c3.002 0 5.59.467 7.766 1.396a19.669 19.669 0 0 1 5.8 3.791l-1.795 2.536c-.133.19-.285.347-.456.471s-.418.185-.741.185c-.248 0-.509-.09-.784-.271s-.603-.403-.983-.669a20.8 20.8 0 0 0-1.34-.855 11.74 11.74 0 0 0-1.824-.855c-.703-.266-1.521-.488-2.451-.67-.931-.18-2.005-.27-3.22-.27-2.185 0-4.185.375-6 1.125-1.814.751-3.377 1.82-4.688 3.207s-2.333 3.077-3.064 5.072-1.097 4.229-1.097 6.697c0 2.547.366 4.816 1.097 6.812s1.729 3.682 2.993 5.06a12.595 12.595 0 0 0 4.489 3.148c1.729.723 3.591 1.083 5.586 1.083 1.216 0 2.309-.071 3.277-.214a13.415 13.415 0 0 0 2.693-.67 11.324 11.324 0 0 0 2.309-1.154 18.213 18.213 0 0 0 2.152-1.666c.323-.286.636-.428.94-.428zM262.87 154.274v17.043h-5.5v-40.84h11.542c2.584 0 4.817.261 6.698.783s3.434 1.277 4.66 2.266 2.133 2.18 2.722 3.576.884 2.96.884 4.689c0 1.443-.228 2.793-.684 4.047s-1.117 2.379-1.981 3.377c-.865.997-1.919 1.848-3.164 2.551s-2.655 1.234-4.232 1.596c.684.398 1.292.979 1.824 1.738l11.913 16.217h-4.902c-1.007 0-1.749-.39-2.223-1.168l-10.602-14.593c-.323-.456-.674-.784-1.054-.983-.38-.199-.951-.299-1.71-.299h-4.191zm0-4.018h5.786c1.615 0 3.035-.194 4.261-.584s2.251-.94 3.078-1.653 1.449-1.562 1.867-2.551c.417-.988.627-2.08.627-3.277 0-2.432-.803-4.266-2.408-5.5-1.606-1.235-3.995-1.854-7.168-1.854h-6.042v15.419zM327.11 171.317h-4.275c-.495 0-.894-.123-1.197-.37a2.283 2.283 0 0 1-.684-.94l-3.819-9.861h-18.326l-3.819 9.861a2.218 2.218 0 0 1-.684.911c-.323.267-.722.399-1.197.399h-4.275l16.331-40.84h5.614l16.331 40.84zm-26.762-15.162h15.248l-6.413-16.615c-.418-1.026-.826-2.309-1.225-3.848a69.203 69.203 0 0 1-.613 2.152c-.2.654-.395 1.23-.584 1.724l-6.413 16.587zM353.187 136.86c-.171.285-.352.5-.542.642-.19.143-.437.214-.741.214-.324 0-.698-.161-1.126-.484-.427-.322-.969-.68-1.625-1.068-.655-.39-1.444-.746-2.365-1.069-.922-.323-2.038-.484-3.349-.484-1.235 0-2.328.167-3.277.499-.95.332-1.744.783-2.38 1.354a5.549 5.549 0 0 0-1.439 2.01 6.38 6.38 0 0 0-.485 2.493c0 1.14.28 2.085.841 2.836s1.301 1.392 2.223 1.924c.921.532 1.966.993 3.135 1.382 1.169.39 2.366.794 3.591 1.211 1.226.418 2.422.889 3.591 1.411s2.213 1.183 3.135 1.981a9.025 9.025 0 0 1 2.223 2.936c.561 1.158.841 2.584.841 4.274 0 1.786-.304 3.463-.912 5.03s-1.496 2.932-2.665 4.09c-1.168 1.159-2.604 2.07-4.304 2.736-1.7.664-3.633.997-5.799.997-2.641 0-5.05-.479-7.225-1.439-2.176-.959-4.033-2.256-5.572-3.89l1.596-2.623c.152-.209.337-.385.556-.527.218-.142.46-.213.727-.213.399 0 .855.213 1.368.641.513.428 1.154.898 1.924 1.411s1.7.983 2.793 1.411c1.092.428 2.427.641 4.004.641 1.311 0 2.479-.18 3.505-.541s1.896-.869 2.608-1.525a6.62 6.62 0 0 0 1.639-2.351c.38-.912.57-1.929.57-3.05 0-1.234-.28-2.246-.841-3.035-.561-.788-1.296-1.449-2.208-1.98s-1.952-.983-3.121-1.354l-3.591-1.141a36.089 36.089 0 0 1-3.591-1.354 11.705 11.705 0 0 1-3.121-1.995c-.912-.817-1.649-1.839-2.209-3.063-.561-1.226-.841-2.74-.841-4.546 0-1.444.28-2.841.841-4.189.56-1.349 1.373-2.546 2.437-3.591s2.38-1.881 3.947-2.508c1.568-.627 3.368-.941 5.401-.941 2.28 0 4.36.361 6.242 1.084a14.371 14.371 0 0 1 4.93 3.135l-1.339 2.618zM395.595 171.317h-5.558v-18.582h-22.002v18.582h-5.558v-40.84h5.558v18.211h22.002v-18.211h5.558v40.84zM412.125 171.317h-5.529v-40.84h5.529v40.84zM427.015 130.662c.237.124.508.376.812.755l23.655 30.78a19.49 19.49 0 0 1-.114-1.438 33.228 33.228 0 0 1-.028-1.354v-28.927h4.845v40.84h-2.793c-.438 0-.803-.076-1.098-.228-.294-.152-.584-.409-.869-.77l-23.626-30.752a36.733 36.733 0 0 1 .114 2.65v29.099h-4.845v-40.84h2.85c.494 0 .86.061 1.097.185zM484.371 167.299a26.94 26.94 0 0 0 3.035-.157 19.01 19.01 0 0 0 2.607-.47c.817-.209 1.587-.46 2.309-.755a24.617 24.617 0 0 0 2.166-1.012v-9.006h-6.326c-.361 0-.651-.104-.869-.314a1.021 1.021 0 0 1-.328-.77v-3.135h12.54v15.676c-1.026.74-2.095 1.387-3.206 1.938s-2.299 1.012-3.562 1.382a25.816 25.816 0 0 1-4.062.827c-1.444.18-3.012.271-4.702.271-2.965 0-5.682-.508-8.151-1.524-2.47-1.017-4.599-2.441-6.384-4.275-1.786-1.834-3.178-4.033-4.175-6.598-.997-2.564-1.496-5.387-1.496-8.465 0-3.115.489-5.956 1.468-8.521.979-2.564 2.375-4.764 4.189-6.598 1.814-1.833 4.009-3.254 6.583-4.261 2.574-1.007 5.458-1.511 8.65-1.511 1.615 0 3.115.119 4.503.356 1.387.237 2.675.58 3.862 1.026 1.187.446 2.283.988 3.291 1.625a20.358 20.358 0 0 1 2.822 2.15l-1.568 2.509c-.323.513-.74.77-1.254.77-.305 0-.637-.104-.998-.313a30.656 30.656 0 0 1-1.596-.969c-.589-.381-1.307-.746-2.151-1.098-.846-.352-1.843-.65-2.993-.898-1.148-.246-2.512-.369-4.089-.369-2.3 0-4.38.375-6.242 1.125-1.862.751-3.448 1.824-4.759 3.221s-2.318 3.088-3.021 5.072c-.703 1.986-1.055 4.215-1.055 6.684 0 2.584.366 4.889 1.097 6.912s1.762 3.738 3.092 5.144a13.36 13.36 0 0 0 4.731 3.221c1.825.74 3.838 1.11 6.042 1.11zM539.916 136.86c-.17.285-.352.5-.541.642-.189.143-.438.214-.74.214-.324 0-.699-.161-1.127-.484-.427-.322-.969-.68-1.624-1.068-.655-.39-1.444-.746-2.365-1.069-.922-.323-2.038-.484-3.349-.484-1.236 0-2.328.167-3.277.499-.951.332-1.744.783-2.381 1.354s-1.115 1.24-1.438 2.01-.485 1.601-.485 2.493c0 1.14.281 2.085.842 2.836s1.301 1.392 2.223 1.924 1.967.993 3.135 1.382c1.169.39 2.365.794 3.592 1.211a42.18 42.18 0 0 1 3.59 1.411 12.623 12.623 0 0 1 3.136 1.981 9.025 9.025 0 0 1 2.223 2.936c.561 1.158.841 2.584.841 4.274 0 1.786-.305 3.463-.912 5.03s-1.496 2.932-2.664 4.09c-1.169 1.159-2.604 2.07-4.305 2.736-1.699.664-3.633.997-5.799.997-2.641 0-5.05-.479-7.225-1.439-2.176-.959-4.033-2.256-5.572-3.89l1.596-2.623c.152-.209.338-.385.557-.527.218-.142.46-.213.727-.213.398 0 .855.213 1.367.641.514.428 1.154.898 1.924 1.411s1.701.983 2.793 1.411c1.093.428 2.428.641 4.005.641 1.312 0 2.479-.18 3.505-.541 1.026-.361 1.896-.869 2.608-1.525a6.608 6.608 0 0 0 1.639-2.351c.38-.912.569-1.929.569-3.05 0-1.234-.279-2.246-.84-3.035-.561-.788-1.297-1.449-2.209-1.98s-1.952-.983-3.121-1.354l-3.591-1.141a35.996 35.996 0 0 1-3.591-1.354c-1.168-.514-2.209-1.178-3.121-1.995s-1.648-1.839-2.209-3.063c-.561-1.226-.84-2.74-.84-4.546 0-1.444.279-2.841.84-4.189s1.373-2.546 2.438-3.591c1.063-1.045 2.379-1.881 3.947-2.508 1.567-.627 3.367-.941 5.4-.941 2.28 0 4.36.361 6.242 1.084a14.38 14.38 0 0 1 4.93 3.135l-1.343 2.618zM555.763 171.317h-5.529v-40.84h5.529v40.84zM570.654 130.662c.237.124.508.376.812.755l23.654 30.78a18.946 18.946 0 0 1-.113-1.438c-.02-.466-.028-.917-.028-1.354v-28.927h4.845v40.84h-2.793c-.438 0-.803-.076-1.098-.228-.295-.152-.584-.409-.869-.77l-23.626-30.752c.037.476.066.94.085 1.396s.028.874.028 1.254v29.099h-4.845v-40.84h2.851c.493 0 .858.061 1.097.185zM638.583 162.882c.304 0 .579.123.826.37l2.166 2.365c-1.672 1.938-3.7 3.448-6.085 4.532-2.384 1.082-5.258 1.624-8.621 1.624-2.945 0-5.614-.508-8.008-1.524-2.395-1.017-4.438-2.441-6.128-4.275-1.691-1.834-3.002-4.033-3.933-6.598-.932-2.564-1.396-5.387-1.396-8.465s.498-5.899 1.496-8.465c.997-2.564 2.398-4.768 4.203-6.611 1.806-1.843 3.966-3.272 6.484-4.289 2.517-1.017 5.296-1.525 8.336-1.525 3.002 0 5.591.467 7.767 1.396a19.669 19.669 0 0 1 5.8 3.791l-1.796 2.536c-.133.19-.285.347-.456.471s-.418.185-.741.185c-.247 0-.508-.09-.783-.271a37.99 37.99 0 0 1-.983-.669 20.8 20.8 0 0 0-1.34-.855 11.74 11.74 0 0 0-1.824-.855c-.703-.266-1.52-.488-2.45-.67-.932-.18-2.005-.27-3.221-.27-2.186 0-4.186.375-5.999 1.125a13.427 13.427 0 0 0-4.688 3.207c-1.312 1.387-2.333 3.077-3.063 5.072-.732 1.995-1.098 4.229-1.098 6.697 0 2.547.365 4.816 1.098 6.812.73 1.995 1.729 3.682 2.992 5.06a12.618 12.618 0 0 0 4.488 3.148c1.729.723 3.592 1.083 5.586 1.083 1.216 0 2.309-.071 3.278-.214a13.405 13.405 0 0 0 2.692-.67 11.298 11.298 0 0 0 2.309-1.154 18.051 18.051 0 0 0 2.152-1.666c.322-.286.636-.428.94-.428zM674.008 130.477v4.502h-19.607v13.566h15.874v4.332h-15.874v13.937h19.607v4.503h-25.165v-40.84h25.165zM696.181 167.441h8.777v-27.845c0-.836.029-1.682.086-2.536l-7.296 6.241c-.19.152-.38.262-.57.328-.189.066-.37.1-.541.1-.285 0-.542-.062-.77-.186a1.407 1.407 0 0 1-.514-.441l-1.596-2.195 12.142-10.516h4.132v37.05h8.037v3.876H696.18v-3.876zM736.707 154.559c-1.539 0-2.997-.257-4.375-.77a10.542 10.542 0 0 1-3.634-2.266c-1.045-.998-1.876-2.223-2.493-3.677-.618-1.454-.927-3.12-.927-5.002 0-1.786.332-3.458.998-5.016a12.344 12.344 0 0 1 2.793-4.075c1.196-1.159 2.622-2.071 4.274-2.736 1.653-.665 3.468-.998 5.443-.998 1.957 0 3.734.324 5.33.969 1.596.646 2.964 1.549 4.104 2.708 1.141 1.159 2.019 2.546 2.637 4.161.617 1.615.926 3.401.926 5.357 0 1.179-.109 2.295-.327 3.35a17.125 17.125 0 0 1-.955 3.092 25.25 25.25 0 0 1-1.496 3.007 45.81 45.81 0 0 1-1.98 3.093l-9.947 14.363c-.247.361-.598.651-1.054.869-.456.219-.979.328-1.568.328h-4.674l12.427-16.273c.417-.551.807-1.073 1.168-1.567.36-.494.703-.987 1.026-1.482a11.333 11.333 0 0 1-3.534 1.909 13.055 13.055 0 0 1-4.162.656zm10.203-11.941c0-1.273-.204-2.428-.613-3.463-.408-1.035-.974-1.914-1.695-2.637a7.43 7.43 0 0 0-2.579-1.667c-.998-.39-2.095-.584-3.292-.584-1.254 0-2.398.204-3.435.612-1.035.409-1.919.975-2.65 1.695a7.462 7.462 0 0 0-1.695 2.594c-.399 1.008-.599 2.109-.599 3.307 0 1.292.186 2.446.556 3.463.37 1.016.902 1.876 1.596 2.579s1.539 1.235 2.537 1.596c.997.361 2.113.542 3.349.542 1.368 0 2.579-.224 3.634-.67s1.942-1.041 2.665-1.781a7.627 7.627 0 0 0 1.652-2.565 8.222 8.222 0 0 0 .569-3.021zM769.767 154.559c-1.539 0-2.997-.257-4.375-.77a10.542 10.542 0 0 1-3.634-2.266c-1.045-.998-1.876-2.223-2.493-3.677-.618-1.454-.927-3.12-.927-5.002 0-1.786.332-3.458.998-5.016a12.344 12.344 0 0 1 2.793-4.075c1.196-1.159 2.622-2.071 4.274-2.736 1.653-.665 3.468-.998 5.443-.998 1.957 0 3.734.324 5.33.969 1.596.646 2.964 1.549 4.104 2.708 1.141 1.159 2.019 2.546 2.637 4.161.617 1.615.926 3.401.926 5.357 0 1.179-.109 2.295-.327 3.35a17.125 17.125 0 0 1-.955 3.092 25.25 25.25 0 0 1-1.496 3.007 45.81 45.81 0 0 1-1.98 3.093l-9.947 14.363c-.247.361-.598.651-1.054.869-.456.219-.979.328-1.568.328h-4.674l12.427-16.273c.417-.551.807-1.073 1.168-1.567.36-.494.703-.987 1.026-1.482a11.333 11.333 0 0 1-3.534 1.909 13.055 13.055 0 0 1-4.162.656zm10.203-11.941c0-1.273-.204-2.428-.613-3.463-.408-1.035-.974-1.914-1.695-2.637a7.43 7.43 0 0 0-2.579-1.667c-.998-.39-2.095-.584-3.292-.584-1.254 0-2.398.204-3.435.612-1.035.409-1.919.975-2.65 1.695a7.462 7.462 0 0 0-1.695 2.594c-.399 1.008-.599 2.109-.599 3.307 0 1.292.186 2.446.556 3.463.37 1.016.902 1.876 1.596 2.579s1.539 1.235 2.537 1.596c.997.361 2.113.542 3.349.542 1.368 0 2.579-.224 3.634-.67s1.942-1.041 2.665-1.781a7.627 7.627 0 0 0 1.652-2.565 8.222 8.222 0 0 0 .569-3.021zM802.826 154.559c-1.539 0-2.997-.257-4.375-.77a10.542 10.542 0 0 1-3.634-2.266c-1.045-.998-1.876-2.223-2.493-3.677-.618-1.454-.927-3.12-.927-5.002 0-1.786.332-3.458.998-5.016a12.344 12.344 0 0 1 2.793-4.075c1.196-1.159 2.622-2.071 4.274-2.736 1.653-.665 3.468-.998 5.443-.998 1.957 0 3.734.324 5.33.969 1.596.646 2.964 1.549 4.104 2.708 1.141 1.159 2.019 2.546 2.637 4.161.617 1.615.926 3.401.926 5.357 0 1.179-.109 2.295-.327 3.35a17.125 17.125 0 0 1-.955 3.092 25.25 25.25 0 0 1-1.496 3.007 45.81 45.81 0 0 1-1.98 3.093l-9.947 14.363c-.247.361-.598.651-1.054.869-.456.219-.979.328-1.568.328h-4.674l12.427-16.273c.417-.551.807-1.073 1.168-1.567.36-.494.703-.987 1.026-1.482a11.333 11.333 0 0 1-3.534 1.909 13.055 13.055 0 0 1-4.162.656zm10.204-11.941c0-1.273-.204-2.428-.613-3.463-.408-1.035-.974-1.914-1.695-2.637a7.43 7.43 0 0 0-2.579-1.667c-.998-.39-2.095-.584-3.292-.584-1.254 0-2.398.204-3.435.612-1.035.409-1.919.975-2.65 1.695a7.462 7.462 0 0 0-1.695 2.594c-.399 1.008-.599 2.109-.599 3.307 0 1.292.186 2.446.556 3.463.37 1.016.902 1.876 1.596 2.579s1.539 1.235 2.537 1.596c.997.361 2.113.542 3.349.542 1.368 0 2.579-.224 3.634-.67s1.942-1.041 2.665-1.781a7.627 7.627 0 0 0 1.652-2.565 8.243 8.243 0 0 0 .569-3.021z"/><g><path class="st0" d="M77.801 66.979a8.14 8.14 0 0 1-2.145-.208 9.191 9.191 0 0 1-2.087-.763 9.632 9.632 0 0 1-3.472-2.99 9.043 9.043 0 0 1-.795-1.355 8.133 8.133 0 0 1-.517-1.414 7.366 7.366 0 0 1-.231-1.437 6.762 6.762 0 0 1 .065-1.423c.078-.468.202-.913.372-1.332a5.63 5.63 0 0 1 1.521-2.15c.333-.293.705-.55 1.112-.768a7.315 7.315 0 0 1 .851-.373 7.574 7.574 0 0 1 .887-.271 7.17 7.17 0 0 1 1.318-.143 8.206 8.206 0 0 1 2.112.243 9.127 9.127 0 0 1 2.037.773c.653.34 1.275.759 1.845 1.25a9.52 9.52 0 0 1 1.535 1.679c.304.426.565.868.783 1.319.218.452.392.913.52 1.379.128.466.211.937.247 1.407.036.47.024.94-.036 1.403-.06.464-.17.907-.326 1.325a5.65 5.65 0 0 1-1.457 2.179 5.951 5.951 0 0 1-1.491 1.01 6.99 6.99 0 0 1-.864.347 8.15 8.15 0 0 1-.459.136 7.009 7.009 0 0 1-.99.154 9.26 9.26 0 0 1-.335.023m69.634-42.239a28.433 28.433 0 0 0-3.898.201 48.44 48.44 0 0 0-4.62.782c-1.677.36-3.489.82-5.448 1.381a145.885 145.885 0 0 0-6.397 2.009 210.081 210.081 0 0 0-8.28 3.021 291.173 291.173 0 0 0-9.206 3.759 369.896 369.896 0 0 0-10.097 4.505 444.43 444.43 0 0 0-10.947 5.262 27.7 27.7 0 0 0-3.761-2.713 27.033 27.033 0 0 0-4.106-2.02 25.424 25.424 0 0 0-4.331-1.265 23.082 23.082 0 0 0-5.387-.42 21.53 21.53 0 0 0-1.896.169c-.315.043-.629.093-.942.15a19.81 19.81 0 0 0-2.553.664 18.806 18.806 0 0 0-2.419 1.004 17.174 17.174 0 0 0-3.24 2.112 16.079 16.079 0 0 0-4.516 6.039 17.487 17.487 0 0 0-1.139 3.797 19.095 19.095 0 0 0-.274 4.095c.054 1.386.255 2.782.598 4.171a22.913 22.913 0 0 0 1.46 4.13 25.389 25.389 0 0 0 2.305 3.97 26.96 26.96 0 0 0 4.576 4.998 27.482 27.482 0 0 0 5.534 3.653 25.94 25.94 0 0 0 6.069 2.142c2.061.445 4.144.618 6.186.495a21.215 21.215 0 0 0 1.951-.21 19.283 19.283 0 0 0 1.908-.395 19.327 19.327 0 0 0 2.534-.863 16.757 16.757 0 0 0 2.331-1.197 16.764 16.764 0 0 0 3.034-2.366 15.945 15.945 0 0 0 2.332-2.91 16.425 16.425 0 0 0 1.603-3.37c.409-1.188.692-2.443.845-3.75.089-.777.129-1.558.122-2.341a19.949 19.949 0 0 0-.161-2.349c-.1-.782-.244-1.563-.434-2.341a22.903 22.903 0 0 0-.696-2.317 480.62 480.62 0 0 1 6.24-3.232 409.49 409.49 0 0 1 5.793-2.891 344.53 344.53 0 0 1 5.375-2.573 288.925 288.925 0 0 1 4.981-2.275l42.617 97.398-79.278 33.528-8.633-22.784a430.867 430.867 0 0 1-7.41 4.412 354.576 354.576 0 0 1-3.672 2.104c-1.222.69-2.436 1.365-3.641 2.024l14.481 39.402a18.342 18.342 0 0 0 3.1 5.408 16.443 16.443 0 0 0 4.426 3.743 14.877 14.877 0 0 0 5.232 1.834 13.99 13.99 0 0 0 6.92-.717c.233-.086.464-.178.695-.276.23-.099.46-.204.688-.315l80.454-39.609c1.473-.72 2.696-1.791 3.65-3.108.948-1.309 1.629-2.861 2.022-4.554.391-1.684.499-3.508.302-5.373a18.686 18.686 0 0 0-1.517-5.611l-36.343-81.44-11.194-25.082-2.4-5.388a78.12 78.12 0 0 1 1.608-.613l.782-.292.766-.287a154.179 154.179 0 0 1 4.642-1.624c1.438-.476 2.777-.892 4.019-1.25a72.704 72.704 0 0 1 3.417-.905 44.53 44.53 0 0 1 2.832-.585c-.39.515-.835 1.069-1.338 1.661A55.277 55.277 0 0 1 144 39.046a75.404 75.404 0 0 1-2.066 2.127 98.851 98.851 0 0 1-2.465 2.361 64.71 64.71 0 0 1-1.148 1.066l-.604.546c-.204.184-.409.37-.615.559l5.325 11.824.835-.749.817-.739c.269-.245.534-.489.796-.731.262-.243.52-.484.774-.726a129.136 129.136 0 0 0 3.721-3.616 83.646 83.646 0 0 0 3.062-3.265 53.598 53.598 0 0 0 2.451-2.961 34.82 34.82 0 0 0 1.883-2.698c.809-1.288 1.416-2.499 1.83-3.647.412-1.142.633-2.224.67-3.259a8.315 8.315 0 0 0-.429-2.975c-.321-.954-.817-1.878-1.484-2.785a11.354 11.354 0 0 0-1.828-1.968 10.257 10.257 0 0 0-2.219-1.427 12.039 12.039 0 0 0-2.675-.89 17.378 17.378 0 0 0-3.196-.353"/><path class="st1" d="M113.999 117.963a6.924 6.924 0 0 1-2.064-.072 7.977 7.977 0 0 1-2.034-.673 8.88 8.88 0 0 1-1.874-1.225 9.467 9.467 0 0 1-1.584-1.725 9.76 9.76 0 0 1-.829-1.416 9.21 9.21 0 0 1-.563-1.492 8.736 8.736 0 0 1-.287-1.532 8.126 8.126 0 0 1-.002-1.536 7.47 7.47 0 0 1 .298-1.456c.144-.46.332-.894.561-1.298a6.315 6.315 0 0 1 1.838-2.034 6.455 6.455 0 0 1 .802-.459 6.168 6.168 0 0 1 2.13-.592 6.94 6.94 0 0 1 2.034.113 8.031 8.031 0 0 1 1.986.687 8.925 8.925 0 0 1 1.822 1.209 9.475 9.475 0 0 1 1.543 1.682c.313.443.585.903.816 1.377.231.474.419.96.564 1.453.145.494.246.995.302 1.499.056.504.066 1.01.029 1.513a7.259 7.259 0 0 1-.253 1.446c-.131.46-.307.896-.525 1.304a6.362 6.362 0 0 1-1.786 2.088 5.765 5.765 0 0 1-.774.483 5.952 5.952 0 0 1-1.174.463 5.801 5.801 0 0 1-.646.147c-.111.016-.221.032-.33.046M101.415.021a12.098 12.098 0 0 0-1.605.013c-.177.014-.353.032-.529.055L18.06 10.419c-1.99.254-3.761.858-5.259 1.736-1.508.883-2.739 2.043-3.638 3.401a10.208 10.208 0 0 0-1.644 4.614c-.174 1.691.05 3.497.728 5.335l27.593 75.116 11.734 31.918 2.629 7.152a319.657 319.657 0 0 1-8.622 4.267 242.582 242.582 0 0 1-7.719 3.513 167.258 167.258 0 0 1-6.693 2.738 99.62 99.62 0 0 1-5.555 1.953 95.174 95.174 0 0 1 2.586-2.972 136.233 136.233 0 0 1 3.147-3.356 183.113 183.113 0 0 1 3.694-3.703 232.906 232.906 0 0 1 6.149-5.772 200.069 200.069 0 0 1 2.029-1.804l-5.718-15.744-1.359 1.126-1.357 1.126-1.346 1.12a548.1 548.1 0 0 0-1.324 1.107 295.697 295.697 0 0 0-6.556 5.735 196.19 196.19 0 0 0-5.726 5.367 132.092 132.092 0 0 0-4.87 5.004 84.94 84.94 0 0 0-3.997 4.654c-1.789 2.264-3.229 4.381-4.325 6.371-1.104 2.003-1.857 3.872-2.269 5.628-.413 1.763-.481 3.408-.213 4.956.269 1.551.874 3.002 1.802 4.374.758 1.123 1.647 2.07 2.682 2.835 1.035.765 2.214 1.347 3.552 1.745 1.335.397 2.826.609 4.487.635 1.654.025 3.475-.135 5.472-.482a45.563 45.563 0 0 0 2.635-.542c.908-.214 1.848-.46 2.821-.741a74.69 74.69 0 0 0 3.009-.938 97.64 97.64 0 0 0 3.196-1.132 136.42 136.42 0 0 0 4.82-1.926 179.119 179.119 0 0 0 5.191-2.287c1.786-.82 3.636-1.7 5.552-2.643 1.903-.937 3.87-1.934 5.902-2.992a367.841 367.841 0 0 0 11.981-6.518 460.12 460.12 0 0 0 12.313-7.25 529.812 529.812 0 0 0 12.376-7.781 574.575 574.575 0 0 0 12.208-8.132 25.389 25.389 0 0 0 4.034 2.774c1.403.776 2.858 1.4 4.337 1.864 1.475.463 2.973.766 4.468.901 1.49.134 2.975.102 4.431-.106a17.669 17.669 0 0 0 8.286-3.484 17.297 17.297 0 0 0 2.808-2.766 17.861 17.861 0 0 0 2.109-3.3 19.36 19.36 0 0 0 1.386-3.742c.338-1.308.554-2.678.64-4.096a23.562 23.562 0 0 0-.134-4.256 24.714 24.714 0 0 0-.886-4.182 26.022 26.022 0 0 0-1.6-4.023 27.079 27.079 0 0 0-2.284-3.782 26.856 26.856 0 0 0-4.292-4.699 25.456 25.456 0 0 0-5.06-3.406 22.99 22.99 0 0 0-5.537-1.988 20.012 20.012 0 0 0-5.719-.419 17.872 17.872 0 0 0-1.845.23 17.82 17.82 0 0 0-4.254 1.315 18.166 18.166 0 0 0-2.277 1.232 17.204 17.204 0 0 0-3.02 2.504 17.495 17.495 0 0 0-2.384 3.132 18.817 18.817 0 0 0-1.686 3.689 20.93 20.93 0 0 0-.924 4.168 22.34 22.34 0 0 0-.152 2.627c.001.881.053 1.766.155 2.648.102.885.255 1.768.458 2.646.203.88.455 1.754.755 2.619a555.207 555.207 0 0 1-13.88 8.709 504.395 504.395 0 0 1-6.696 3.99 469.543 469.543 0 0 1-6.5 3.735L24.076 23.987l79.766-11.925 7.276 16.614c.935-.365 1.858-.722 2.769-1.069.908-.346 1.804-.682 2.688-1.008.881-.325 1.749-.639 2.606-.943.854-.302 1.696-.594 2.525-.873l-6.734-15.076a15.736 15.736 0 0 0-2.36-3.74 17.604 17.604 0 0 0-3.261-2.995 17.002 17.002 0 0 0-3.84-2.053c-1.342-.505-2.727-.817-4.096-.898"/></g></svg>